<svg width="20" height="20" viewBox="0 0 20 20" fill="none" xmlns="http://www.w3.org/2000/svg">
<path d="M10 13C8.695 13 7.597 12.162 7.184 11H5.101C5.565 13.282 7.581 15 10 15C12.419 15 14.436 13.282 14.899 11H12.816C12.403 12.162 11.305 13 10 13ZM7 7H5V9H7V7ZM13 7V9H15V7H13Z" fill="#B5B6B8"/>
<path d="M20 2H18V0H16V2H14V4H16V6H18V4H20V2Z" fill="#B5B6B8"/>
<path d="M17.738 8C17.903 8.64 18 9.308 18 10C18 14.418 14.418 18 10 18C5.582 18 2 14.418 2 10C2 5.582 5.582 2 10 2C10.692 2 11.359 2.097 12 2.262V0.201C11.354 0.07 10.685 0 10 0C4.477 0 0 4.478 0 10C0 15.523 4.477 20 10 20C15.522 20 20 15.523 20 10C20 9.315 19.931 8.646 19.799 8H17.738Z" fill="#B5B6B8"/>
</svg>
