<svg width="18" height="18" viewBox="0 0 18 18" fill="none" xmlns="http://www.w3.org/2000/svg">
<path d="M17.5837 13.5458L13.0385 8.99957L17.5823 4.45475C18.1378 3.8992 18.1378 2.99083 17.5823 2.43505L15.5604 0.415624C15.0049 -0.138541 14.0968 -0.138541 13.5414 0.415624L8.99729 4.96044L4.45366 0.415624C3.89962 -0.138541 2.99006 -0.138541 2.43441 0.415624L0.416814 2.43505C-0.138612 2.9906 -0.138612 3.89898 0.416814 4.45475L4.96067 8.99961L0.416814 13.5458C-0.138612 14.1014 -0.138612 15.0097 0.416814 15.5652L2.43606 17.5833C2.99149 18.1389 3.901 18.1389 4.45504 17.5833L8.9989 13.0401L13.5425 17.5833C14.0979 18.1389 15.0061 18.1389 15.5645 17.5833L17.5837 15.5652C18.1391 15.0097 18.1391 14.1013 17.5837 13.5458Z" fill="#ADAEB0"/>
</svg>
