<svg width="20" height="20" viewBox="0 0 20 20" fill="none" xmlns="http://www.w3.org/2000/svg">
<path d="M8 2C11.309 2 14 4.691 14 8C14 11.309 11.309 14 8 14C4.691 14 2 11.309 2 8C2 4.691 4.691 2 8 2ZM8 0C3.582 0 0 3.582 0 8C0 12.418 3.582 16 8 16C12.418 16 16 12.418 16 8C16 3.582 12.418 0 8 0Z" fill="#B5B6B8"/>
<path d="M19.1709 15.1682L16.0369 12.0342C15.7279 12.6472 15.3579 13.2242 14.9239 13.7482L17.7569 16.5822C18.0799 16.9062 18.0799 17.4332 17.7569 17.7572C17.5449 17.9692 17.2979 18.0002 17.1699 18.0002C17.0409 18.0002 16.7939 17.9692 16.5819 17.7572L13.7479 14.9242C13.2249 15.3592 12.6469 15.7292 12.0339 16.0372L15.1679 19.1712C15.7209 19.7242 16.4449 20.0002 17.1689 20.0002C17.8939 20.0002 18.6179 19.7242 19.1709 19.1712C20.2759 18.0652 20.2759 16.2732 19.1709 15.1682Z" fill="#B5B6B8"/>
</svg>
