<svg width="56" height="56" viewBox="0 0 56 56" fill="none" xmlns="http://www.w3.org/2000/svg">
<rect width="56" height="56" rx="8" fill="#7289DA"/>
<path d="M31.9219 27.4375C31.9219 26.6875 31.3594 26.0781 30.7031 26.0781C30 26.0781 29.4375 26.6875 29.4375 27.4375C29.4375 28.1406 30 28.75 30.7031 28.75C31.3594 28.75 31.9219 28.1406 31.9219 27.4375ZM26.2969 26.0781C25.6406 26.0781 25.0781 26.6875 25.0781 27.4375C25.0781 28.1406 25.6406 28.75 26.2969 28.75C27 28.75 27.5156 28.1406 27.5156 27.4375C27.5625 26.6875 27 26.0781 26.2969 26.0781ZM39 18.4844C39 17.125 37.875 16 36.5156 16H20.4375C19.0781 16 18 17.125 18 18.4844V34.7031C18 36.1094 19.0781 37.1875 20.4375 37.1875H34.0312L33.4219 34.9844C36.9375 38.2188 35.9531 37.375 39 40V18.4844ZM35.5781 29.875C35.5781 29.875 34.5469 31.6094 31.875 31.7031C31.875 31.7031 31.4531 31.1875 31.0781 30.7188C32.6719 30.2969 33.2812 29.3125 33.2812 29.3125C32.7656 29.6406 32.2969 29.8281 31.875 30.0156C29.2969 31.0938 26.4375 30.7188 24.375 29.5938C24.375 29.5469 24.0938 29.4062 23.9062 29.2656C23.9062 29.2656 24.4688 30.25 26.0156 30.7188C25.6406 31.1406 25.2188 31.7031 25.2188 31.7031C22.5469 31.6094 21.5625 29.875 21.5625 29.875C21.5625 25.9844 23.25 22.8906 23.25 22.8906C24.9844 21.5781 26.625 21.625 26.625 21.625L26.7656 21.7656C24.6094 22.375 23.625 23.3125 23.625 23.3125C23.625 23.3125 23.8594 23.1719 24.3281 22.9844C27.0938 21.7656 30.4219 21.7656 33.2812 23.3125C33.2812 23.3125 32.3438 22.4219 30.2812 21.8125L30.4688 21.625C30.4688 21.625 32.1094 21.5781 33.8438 22.8906C33.8438 22.8906 35.5781 25.9844 35.5781 29.875Z" fill="white"/>
</svg>
