<svg width="21" height="21" viewBox="0 0 21 21" fill="none" xmlns="http://www.w3.org/2000/svg">
<g clip-path="url(#clip0_1576_12)">
<path d="M4.50348 19.5193H7.00613C7.69827 19.5193 8.25745 18.9601 8.25745 18.2679C8.25745 17.5758 7.69827 17.0166 7.00613 17.0166H4.50348C3.81252 17.0166 3.25216 16.4563 3.25216 15.7653V5.7547C3.25216 5.06374 3.81252 4.50338 4.50348 4.50338H7.00613C7.69827 4.50338 8.25745 3.94302 8.25745 3.25206C8.25745 2.56109 7.69827 2.00073 7.00613 2.00073H4.50348C2.4302 2.00073 0.749512 3.68142 0.749512 5.7547V15.7653C0.749512 17.8378 2.4302 19.5193 4.50348 19.5193ZM20.4891 10.0757L14.8543 4.75756C14.5815 4.50033 14.1817 4.43006 13.8376 4.57791C13.4933 4.72639 13.2702 5.06554 13.2702 5.44015L13.2666 8.25563L8.26129 8.25559C7.56955 8.25559 7.00919 8.81595 7.00919 9.50692V12.0096C7.00919 12.7005 7.56994 13.2609 8.26129 13.2609L13.2666 13.2609L13.2702 16.0412C13.2702 16.4157 13.4933 16.7549 13.8376 16.9035C14.1818 17.0513 14.5817 16.981 14.8543 16.7238L20.4891 11.4057C20.8645 11.0885 20.8645 10.4315 20.4891 10.0757Z" fill="black"/>
</g>
<defs>
<clipPath id="clip0_1576_12">
<rect width="20.0212" height="20.0212" fill="white" transform="translate(0.749512 0.74939)"/>
</clipPath>
</defs>
</svg>
