<svg width="20" height="20" viewBox="0 0 20 20" fill="none" xmlns="http://www.w3.org/2000/svg">
<path d="M10 8C12.757 8 15 10.243 15 13C15 15.757 12.757 18 10 18C7.243 18 5 15.757 5 13C5 10.243 7.243 8 10 8ZM10 6C6.134 6 3 9.134 3 13C3 16.866 6.134 20 10 20C13.865 20 17 16.866 17 13C17 9.134 13.865 6 10 6Z" fill="#B5B6B8"/>
<path d="M3.906 6.391L2.651 2H6.491L7.192 4.453C7.819 4.247 8.475 4.106 9.155 4.043L8 0H0L2.36 8.26C2.79 7.568 3.31 6.941 3.906 6.391Z" fill="#B5B6B8"/>
<path d="M12.808 4.453L13.509 2H17.349L16.094 6.391C16.689 6.94 17.21 7.568 17.64 8.26L20 0H12L10.845 4.043C11.524 4.106 12.181 4.247 12.808 4.453Z" fill="#B5B6B8"/>
</svg>
