<svg width="20" height="20" viewBox="0 0 20 20" fill="none" xmlns="http://www.w3.org/2000/svg">
<path d="M10.0001 2.71173L11.7742 6.52435L12.2262 7.49425L13.2842 7.65723L17.4223 8.29417L14.3522 11.4689L13.6552 12.1898L13.8152 13.1787L14.5152 17.5043L11.0211 15.5574L10.0561 15.0195L10.0001 15.0505L9.9451 15.0205L8.98007 15.5584L5.48597 17.5053L6.18599 13.1797L6.346 12.1908L5.64898 11.4699L2.57789 8.29517L6.71601 7.65823L7.77404 7.49525L8.22505 6.52535L10.0001 2.71173ZM10.0291 0C10.0191 0 10.0101 0.0019998 10.0001 0.0039996C9.9901 0.0019998 9.9811 0 9.9711 0C9.41309 0 8.90507 0.325967 8.66807 0.833917L6.412 5.68143L1.22285 6.48035C0.688837 6.56234 0.245825 6.94031 0.0748196 7.45625C-0.0971853 7.9732 0.0328185 8.54215 0.408829 8.93011L4.21094 12.8617L3.32891 18.3142C3.23991 18.8621 3.46992 19.4141 3.91993 19.734C4.16794 19.91 4.45894 20 4.74995 20C4.98996 20 5.22897 19.939 5.44697 19.818L9.9541 17.3063L10.0001 17.3303L10.0461 17.3053L14.5522 19.817C14.7712 19.938 15.0092 19.999 15.2493 19.999C15.5403 19.999 15.8313 19.909 16.0793 19.733C16.5293 19.4131 16.7593 18.8611 16.6703 18.3132L15.7883 12.8607L19.5904 8.92911C19.9664 8.54215 20.0974 7.9722 19.9254 7.45526C19.7534 6.94031 19.3114 6.56134 18.7774 6.47935L13.5882 5.68143L11.3321 0.833917C11.0951 0.325967 10.5861 0 10.0291 0Z" fill="#B5B6B8"/>
<path d="M8.99982 9.00403H6.99982V11.004H8.99982V9.00403Z" fill="#B5B6B8"/>
<path d="M12.9998 9.00403H10.9998V11.004H12.9998V9.00403Z" fill="#B5B6B8"/>
</svg>
