<svg width="20" height="20" viewBox="0 0 20 20" fill="none" xmlns="http://www.w3.org/2000/svg">
<path d="M10 10C13.0689 10 15.5556 7.762 15.5556 5C15.5556 2.238 13.0689 0 10 0C6.93111 0 4.44444 2.238 4.44444 5C4.44444 7.761 6.93111 10 10 10ZM10 2C11.8378 2 13.3333 3.346 13.3333 5C13.3333 6.654 11.8378 8 10 8C8.16222 8 6.66667 6.654 6.66667 5C6.66667 3.346 8.16222 2 10 2ZM13.3333 12H6.66667C2.98556 12 0 14.686 0 18V20H2.22222V18C2.22222 15.795 4.21556 14 6.66667 14H13.3333C15.7844 14 17.7778 15.795 17.7778 18V20H20V18C20 14.686 17.0144 12 13.3333 12Z" fill="#B5B6B8"/>
</svg>
