<svg width="20" height="20" viewBox="0 0 20 20" fill="none" xmlns="http://www.w3.org/2000/svg">
<path d="M18 8V18H16V8H18ZM18 6H16C14.896 6 14 6.896 14 8V18C14 19.104 14.896 20 16 20H18C19.104 20 20 19.104 20 18V8C20 6.896 19.104 6 18 6Z" fill="#B5B6B8"/>
<path d="M11 2V18H9V2H11ZM11 0H9C7.896 0 7 0.896 7 2V18C7 19.104 7.896 20 9 20H11C12.104 20 13 19.104 13 18V2C13 0.896 12.104 0 11 0Z" fill="#B5B6B8"/>
<path d="M4 14V18H2V14H4ZM4 12H2C0.896 12 0 12.896 0 14V18C0 19.104 0.896 20 2 20H4C5.104 20 6 19.104 6 18V14C6 12.896 5.104 12 4 12Z" fill="#B5B6B8"/>
</svg>
