<svg width="20" height="20" viewBox="0 0 20 20" fill="none" xmlns="http://www.w3.org/2000/svg">
<path d="M10 2C11.654 2 13 3.346 13 5C13 6.654 11.654 8 10 8C8.346 8 7 6.654 7 5C7 3.346 8.346 2 10 2ZM10 0C7.238 0 5 2.238 5 5C5 7.762 7.238 10 10 10C12.762 10 15 7.762 15 5C15 2.238 12.762 0 10 0Z" fill="#B5B6B8"/>
<path d="M3 20V18C3 15.795 4.794 14 7 14H13C15.206 14 17 15.795 17 18V20H19V18C19 14.687 16.313 12 13 12H7C3.687 12 1 14.687 1 18V20H3Z" fill="#B5B6B8"/>
<path d="M20 8.05001C18.87 8.05001 17.95 7.13101 17.95 6.00001C17.95 4.86901 18.87 3.95001 20 3.95001V1.95001C17.764 1.95001 15.95 3.76301 15.95 6.00001C15.95 8.23701 17.763 10.05 20 10.05V8.05001Z" fill="#B5B6B8"/>
<path d="M0 8.05001C1 8.05001 2.05 7.13001 2.05 6.00001C2.05 4.87001 1 3.95001 0 3.95001V1.95001C2 1.95001 4.05 3.76301 4.05 6.00001C4.05 8.23701 2 10.05 0 10.05V8.05001Z" fill="#B5B6B8"/>
</svg>
