<svg width="20" height="20" viewBox="0 0 20 20" fill="none" xmlns="http://www.w3.org/2000/svg">
<path d="M16.56 6C16.7244 6.117 16.9456 6.386 17.0111 6.557L17.0122 6.574L17.7633 17.995C17.7578 17.998 17.7522 18 17.7489 18.001H2.25444C2.25 18 2.24333 17.998 2.23667 17.995L2.98778 6.573L2.98889 6.556C3.05444 6.386 3.27444 6.117 3.43889 6H16.56ZM16.75 4H3.24889C2.00667 4 0.768889 5.563 0.768889 6.455L0 18.154C0 19.048 1.00667 20 2.24889 20H17.7489C18.9922 20 20 19.048 20 18.154L19.2311 6.455C19.2311 5.563 17.9922 4 16.75 4Z" fill="#B5B6B8"/>
<path d="M7.77776 8V3.893C7.77776 2.849 8.7211 2 9.8811 2H9.99999H10.06C11.22 2 12.2222 2.849 12.2222 3.893V8H14.4444V3.893C14.4444 1.743 12.5078 0 10.1189 0H9.8811C7.49221 0 5.55554 1.743 5.55554 3.893V8H7.77776Z" fill="#B5B6B8"/>
</svg>
