<svg width="20" height="20" viewBox="0 0 20 20" fill="none" xmlns="http://www.w3.org/2000/svg">
<path d="M19.5376 14.127C19.5121 14.109 17.0476 12.369 17.0476 6.607C17.0476 2.964 13.8864 0 10.0053 0C6.12411 0 2.96518 2.964 2.96518 6.607C2.96518 12.369 0.498478 14.109 0.489589 14.115C0.0840282 14.369 -0.093752 14.84 0.0484721 15.273C0.191807 15.707 0.622924 16.003 1.11182 16.003H18.8976C19.3787 16.003 19.7976 15.71 19.9454 15.284C20.0965 14.861 19.9254 14.389 19.5376 14.127ZM3.42963 13.939C4.30408 12.527 5.18965 10.21 5.18965 6.607C5.18965 4.102 7.35079 2.065 10.0053 2.065C12.662 2.065 14.822 4.103 14.822 6.607C14.822 10.21 15.7065 12.527 16.5809 13.94H3.42963V13.939ZM12.6875 17.146C12.0542 16.863 11.2508 17.031 10.8886 17.527C10.7486 17.718 10.5253 17.853 10.2586 17.91C9.9986 17.961 9.72749 17.933 9.49415 17.826C9.34082 17.756 9.21082 17.652 9.12082 17.529C8.7597 17.033 7.95413 16.861 7.32301 17.144C6.69189 17.427 6.47189 18.058 6.83412 18.552C7.1519 18.99 7.61191 19.355 8.1608 19.607C8.72748 19.867 9.35748 20 9.99749 20C10.3097 20 10.6242 19.969 10.9342 19.904C11.8853 19.707 12.682 19.228 13.1742 18.556C13.5364 18.061 13.3164 17.432 12.6875 17.146Z" fill="#B5B6B8"/>
</svg>
