<svg width="20" height="20" viewBox="0 0 20 20" fill="none" xmlns="http://www.w3.org/2000/svg">
<path d="M10 7C8.343 7 7 8.343 7 10C7 11.655 8.343 12.999 10 12.999C11.656 12.999 13 11.655 13 10C13 8.343 11.656 7 10 7ZM10 11C9.448 11 9 10.551 9 10C9 9.448 9.448 9 10 9C10.552 9 11 9.448 11 10C11 10.551 10.552 11 10 11ZM17.363 12.638C18.817 12.638 20 11.453 20 10C20 8.547 18.817 7.363 17.363 7.363H17.228C17.122 7.363 17.023 7.314 16.958 7.234C16.944 7.18 16.926 7.128 16.903 7.076C16.844 6.944 16.872 6.793 17.014 6.647C17.512 6.148 17.786 5.486 17.786 4.782C17.786 4.078 17.512 3.415 17.013 2.917C16.016 1.92 14.32 1.882 13.244 2.959C13.142 3.059 13.004 3.094 12.847 3.025C12.718 2.97 12.635 2.845 12.635 2.634C12.637 1.182 11.454 0 10 0C8.546 0 7.363 1.182 7.363 2.636V2.771C7.363 2.877 7.314 2.977 7.234 3.042C7.181 3.056 7.128 3.073 7.077 3.096C6.949 3.154 6.813 3.148 6.647 2.983C5.651 1.989 3.916 1.988 2.917 2.986C1.891 4.014 1.892 5.687 2.961 6.756C3.062 6.858 3.089 7.01 3.007 7.2C2.957 7.336 2.831 7.427 2.636 7.429C1.183 7.429 0 8.612 0 10.065C0 11.519 1.183 12.702 2.636 12.702H2.774C2.912 12.702 3.037 12.785 3.096 12.924C3.154 13.056 3.126 13.208 2.983 13.353C2.486 13.851 2.212 14.514 2.212 15.218C2.213 15.923 2.488 16.585 2.985 17.081C3.981 18.077 5.674 18.119 6.756 17.039C6.857 16.94 6.898 16.866 7.199 16.993C7.335 17.042 7.425 17.169 7.428 17.363C7.428 18.817 8.611 20 10.065 20C11.519 20 12.702 18.817 12.702 17.363V17.226C12.702 17.087 12.785 16.963 12.924 16.904C13.053 16.846 13.187 16.853 13.352 17.016C14.351 18.011 16.087 18.012 17.082 17.014C17.58 16.515 17.853 15.852 17.853 15.148C17.852 14.444 17.578 13.782 17.04 13.245C16.939 13.141 16.911 12.989 16.976 12.847C17.029 12.72 17.154 12.638 17.363 12.638ZM15.666 14.7C15.787 14.82 15.854 14.979 15.854 15.149C15.854 15.319 15.787 15.479 15.666 15.602C15.427 15.843 15.061 15.897 14.71 15.544C14.033 14.882 12.968 14.699 12.128 15.069C11.264 15.438 10.705 16.283 10.703 17.222V17.362C10.703 17.714 10.417 17.998 10.066 17.998C9.715 17.998 9.429 17.714 9.429 17.265C9.406 16.295 8.802 15.45 7.95 15.14C7.649 15.007 7.329 14.939 7 14.939C6.382 14.939 5.798 15.177 5.3 15.667C5.06 15.907 4.64 15.908 4.399 15.665C4.151 15.419 4.151 15.015 4.457 14.708C5.132 14.018 5.316 12.999 4.931 12.128C4.563 11.264 3.717 10.704 2.777 10.702H2.637C2.285 10.702 2 10.416 2 10.065C2 9.714 2.285 9.428 2.733 9.428C3.704 9.405 4.548 8.802 4.86 7.948C5.25 7.064 5.065 6.048 4.333 5.3C4.085 5.052 4.085 4.647 4.334 4.398C4.574 4.158 4.937 4.1 5.291 4.456C5.92 5.07 6.871 5.282 7.694 5C7.778 4.987 7.861 4.964 7.939 4.93C8.8 4.56 9.359 3.716 9.363 2.775V2.635C9.363 2.285 9.649 2 10 2C10.351 2 10.637 2.285 10.637 2.712C10.639 3.649 11.198 4.494 12.051 4.86C12.916 5.24 13.935 5.082 14.7 4.333C14.941 4.093 15.356 4.09 15.601 4.334C15.721 4.454 15.788 4.613 15.788 4.783C15.788 4.952 15.722 5.114 15.546 5.29C14.917 5.932 14.712 6.856 15.001 7.695C15.014 7.778 15.036 7.86 15.07 7.939C15.439 8.801 16.283 9.36 17.224 9.364H17.363C17.715 9.364 18 9.649 18 10C18 10.351 17.715 10.637 17.288 10.637C16.35 10.639 15.505 11.198 15.142 12.048C14.749 12.933 14.933 13.951 15.666 14.7Z" fill="#B5B6B8"/>
</svg>
