<svg width="20" height="20" viewBox="0 0 20 20" fill="none" xmlns="http://www.w3.org/2000/svg">
<path d="M12 2C13.103 2 14 2.897 14 4V9C14 10.103 13.103 11 12 11H8H7.754L7.515 11.06L2 12.438V9V4C2 2.897 2.897 2 4 2H12ZM12 0H4C1.791 0 0 1.791 0 4V9V15L8 13H12C14.209 13 16 11.209 16 9V4C16 1.791 14.209 0 12 0Z" fill="#B5B6B8"/>
<path d="M12 5.012C12 5.558 11.558 6 11.013 6H4.987C4.442 6 4 5.558 4 5.012V4.988C4 4.442 4.442 4 4.987 4H11.012C11.558 4 12 4.442 12 4.988V5.012Z" fill="#B5B6B8"/>
<path d="M10 8.047C10 8.574 9.573 9 9.047 9H4.953C4.427 9 4 8.574 4 8.047V7.953C4 7.426 4.427 7 4.953 7H9.047C9.573 7 10 7.426 10 7.953V8.047Z" fill="#B5B6B8"/>
<path d="M17 5.14197V7.27797C17.595 7.62497 18 8.26297 18 8.99997V14V17.438L12.484 16.059L12.246 16H12H8.00003C7.26303 16 6.62503 15.595 6.27803 15H4.14203C4.58803 16.722 6.13903 18 8.00003 18H12L20 20V14V8.99997C20 7.13897 18.722 5.58797 17 5.14197Z" fill="#B5B6B8"/>
</svg>
