<svg width="20" height="20" viewBox="0 0 20 20" fill="none" xmlns="http://www.w3.org/2000/svg">
<path d="M10 0C4.477 0 0 4.478 0 10C0 15.523 4.477 20 10 20C15.522 20 20 15.523 20 10C20 4.478 15.522 0 10 0ZM10 18C5.582 18 2 14.418 2 10C2 5.582 5.582 2 10 2C14.418 2 18 5.582 18 10C18 14.418 14.418 18 10 18ZM10 13C8.695 13 7.597 12.162 7.184 11H5.101C5.565 13.282 7.581 15 10 15C12.419 15 14.436 13.282 14.899 11H12.816C12.403 12.162 11.305 13 10 13ZM7 7H5V9H7V7ZM13 9H15V7H13V9Z" fill="#B5B6B8"/>
</svg>
